<svg xmlns="http://www.w3.org/2000/svg" width="20.964" height="26.205" viewBox="0 0 20.964 26.205">
  <defs>
    <style>
      .cls-1 {
        fill: #333333;
      }
    </style>
  </defs>
  <path id="Icon_material-shopping-bag" data-name="Icon material-shopping-bag" class="cls-1" d="M24.344,8.241H21.723a5.241,5.241,0,0,0-10.482,0H8.621A2.628,2.628,0,0,0,6,10.862V26.585a2.628,2.628,0,0,0,2.621,2.621H24.344a2.628,2.628,0,0,0,2.621-2.621V10.862A2.628,2.628,0,0,0,24.344,8.241ZM13.862,13.482a1.31,1.31,0,1,1-2.621,0V10.862h2.621Zm2.621-7.862A2.628,2.628,0,0,1,19.1,8.241H13.862A2.628,2.628,0,0,1,16.482,5.621Zm5.241,7.862a1.31,1.31,0,0,1-2.621,0V10.862h2.621Z" transform="translate(-6 -3)"/>
</svg>
